<svg viewbox="0 0 405 405" width="405" height="405" xmlns="http://www.w3.org/2000/svg"><path d="M314.819 404.974c-3.292 0-6.634-.834-9.727-2.504l-102.154-56.176a.825.825 0 00-.848 0L99.936 402.47c-7.083 3.912-15.513 3.234-21.947-1.669-6.435-4.903-9.627-13.092-8.28-21.333L89.212 260.49a.99.99 0 00-.25-.835l-82.65-84.24c-5.737-5.841-7.732-14.396-5.288-22.324 2.494-7.928 8.929-13.614 16.81-14.814l114.225-17.369c.299-.052.548-.209.648-.522l51.077-108.233C187.326 4.643 194.458 0 202.49 0c8.03 0 15.164 4.642 18.705 12.153l51.077 108.233c.15.261.4.47.649.522l114.224 17.37c7.931 1.2 14.366 6.885 16.81 14.813 2.494 7.928.449 16.483-5.287 22.325l-82.552 84.291a.99.99 0 00-.249.835L335.37 379.52c1.347 8.241-1.845 16.378-8.28 21.333-3.641 2.713-7.93 4.121-12.27 4.121zm-111.31-100.058c2.737 0 5.433.683 7.925 2.047l83.702 45.928c.164.086.409.214.776-.042.368-.256.327-.555.286-.725l-16.013-97.315c-.94-5.757.899-11.685 4.902-15.779l67.689-68.87c.122-.128.327-.342.163-.768-.163-.427-.408-.512-.572-.512l-93.547-14.2c-5.555-.853-10.376-4.478-12.868-9.766l-41.79-88.488c-.081-.17-.204-.426-.653-.426-.45 0-.572.256-.653.426l-41.831 88.488c-2.492 5.245-7.312 8.913-12.868 9.766l-93.547 14.2c-.163.043-.45.085-.572.512-.122.426.082.64.164.768l67.688 68.87c4.045 4.094 5.883 9.98 4.902 15.779l-15.972 97.272c-.04.17-.082.47.286.725.368.256.613.128.776.043l83.661-45.928a17.012 17.012 0 017.966-2.005z" fill="#2A2941" fill-rule="evenodd"/></svg>